<?xml version="1.0" encoding="iso-8859-1"?>
<!-- Generator: Adobe Illustrator 19.0.0, SVG Export Plug-In . SVG Version: 6.00 Build 0)  -->
<svg version="1.1" id="Layer_1" xmlns="http://www.w3.org/2000/svg" xmlns:xlink="http://www.w3.org/1999/xlink" x="0px" y="0px"
	 viewBox="0 0 512.001 512.001" style="enable-background:new 0 0 512.001 512.001;" xml:space="preserve">
<g>
	<g>
		<path d="M489.926,388.891c6.381-7.21,10.265-16.678,10.265-27.041v-1.866c0-13.696-6.781-25.83-17.155-33.248
			c10.374-7.417,17.155-19.552,17.155-33.248v-1.866c0-10.152-3.73-19.443-9.881-26.595C502.779,261.743,512,250.374,512,236.891
			v-5.533c0-31.329-12.492-60.491-35.172-82.115c-3.042-2.9-7.859-2.785-10.76,0.257c-2.9,3.042-2.785,7.86,0.257,10.76
			c19.639,18.724,30.455,43.974,30.455,71.1v5.533c0,7.651-6.224,13.875-13.875,13.875h-23.571H198.476h-23.57
			c-7.652,0-13.876-6.224-13.876-13.875v-5.533c0-54.159,44.062-98.221,98.221-98.221h139.309c16.354,0,32.542,4.098,46.813,11.85
			c3.695,2.008,8.314,0.638,10.319-3.054c2.006-3.693,0.638-8.313-3.054-10.319c-16.493-8.961-35.194-13.696-54.078-13.696H282.93
			l1.981-31.727h13.767c2.275,0,4.431-1.018,5.877-2.774c1.445-1.756,2.029-4.068,1.591-6.3l-11.667-59.466
			c-0.7-3.571-3.829-6.145-7.468-6.145H19.277c-3.638,0-6.767,2.575-7.468,6.145L0.143,77.116c-0.438,2.232,0.146,4.544,1.591,6.3
			c1.446,1.756,3.601,2.774,5.877,2.774h13.773l8.445,135.186c0.252,4.033,3.601,7.136,7.588,7.136c0.159,0,0.321-0.005,0.482-0.015
			c4.195-0.262,7.383-3.875,7.121-8.07L36.634,86.191h233.027l-1.981,31.727h-8.43c-62.551,0-113.441,50.89-113.441,113.441v5.533
			c0,13.484,9.221,24.852,21.689,28.136c-6.15,7.153-9.88,16.445-9.88,26.595v1.866c0,13.696,6.781,25.83,17.154,33.248
			c-10.374,7.417-17.154,19.552-17.154,33.248v1.866c0,10.363,3.885,19.83,10.265,27.041c-12.773,3.966-22.074,15.894-22.074,29.954
			v2.67c0,26.16,12.794,49.378,32.443,63.758H61.563L46.5,244.139c-0.262-4.195-3.878-7.377-8.07-7.121
			c-4.195,0.262-7.383,3.875-7.121,8.07l15.509,248.269c0.251,4.011,3.577,7.135,7.595,7.135H224.75
			c0.013,0,0.026,0.001,0.039,0.001h208.233c43.548,0,78.979-35.429,78.979-78.979v-2.67
			C512.001,404.785,502.699,392.857,489.926,388.891z M28.533,70.966c-0.032,0-0.064,0.004-0.096,0.005H16.858l8.682-44.246h255.21
			l8.68,44.246h-11.572c-0.032,0-0.064-0.005-0.096-0.005H28.533z M172.839,293.49v-1.866c0-14.136,11.5-25.638,25.638-25.638
			h260.859c14.136,0,25.638,11.5,25.638,25.638v1.866c0,14.136-11.501,25.638-25.638,25.638H198.476
			C184.34,319.127,172.839,307.626,172.839,293.49z M417.102,334.347l-15.361,23.295l-42.883-23.295H417.102z M172.839,359.984
			c0-14.136,11.5-25.638,25.638-25.638h128.496l73.643,40.003c1.151,0.625,2.397,0.924,3.627,0.924c2.483,0,4.904-1.217,6.359-3.421
			l24.732-37.506h24.002c14.135,0.001,25.637,11.501,25.637,25.638v1.866c0,14.136-11.501,25.638-25.638,25.638H198.476
			c-14.136,0-25.638-11.5-25.638-25.638V359.984z M496.781,421.514c0,35.156-28.601,63.759-63.759,63.759H251.901
			c-0.007,0-0.013-0.001-0.019-0.001h-27.13c-35.139-0.021-63.72-28.615-63.72-63.758v-2.67c0-8.899,7.239-16.137,16.137-16.137
			h21.308h260.859h21.309c8.898,0,16.136,7.24,16.136,16.137V421.514z"/>
	</g>
</g>
<g>
	<g>
		<path d="M245.131,139.651c-4.203,0-7.61,3.407-7.61,7.61v17.992c0,4.203,3.407,7.61,7.61,7.61c4.203,0,7.61-3.407,7.61-7.61
			v-17.992C252.741,143.058,249.334,139.651,245.131,139.651z"/>
	</g>
</g>
<g>
	<g>
		<path d="M370.793,139.651c-4.203,0-7.61,3.407-7.61,7.61v17.992c0,4.203,3.407,7.61,7.61,7.61c4.203,0,7.61-3.407,7.61-7.61
			v-17.992C378.403,143.058,374.996,139.651,370.793,139.651z"/>
	</g>
</g>
<g>
	<g>
		<path d="M328.906,139.651c-4.203,0-7.61,3.407-7.61,7.61v17.992c0,4.203,3.407,7.61,7.61,7.61c4.203,0,7.61-3.407,7.61-7.61
			v-17.992C336.516,143.058,333.109,139.651,328.906,139.651z"/>
	</g>
</g>
<g>
	<g>
		<path d="M287.018,139.651c-4.203,0-7.61,3.407-7.61,7.61v17.992c0,4.203,3.407,7.61,7.61,7.61s7.61-3.407,7.61-7.61v-17.992
			C294.628,143.058,291.221,139.651,287.018,139.651z"/>
	</g>
</g>
<g>
	<g>
		<path d="M412.682,139.651c-4.203,0-7.61,3.407-7.61,7.61v17.992c0,4.203,3.407,7.61,7.61,7.61c4.203,0,7.61-3.407,7.61-7.61
			v-17.992C420.292,143.058,416.885,139.651,412.682,139.651z"/>
	</g>
</g>
<g>
</g>
<g>
</g>
<g>
</g>
<g>
</g>
<g>
</g>
<g>
</g>
<g>
</g>
<g>
</g>
<g>
</g>
<g>
</g>
<g>
</g>
<g>
</g>
<g>
</g>
<g>
</g>
<g>
</g>
</svg>
