<?xml version="1.0" encoding="iso-8859-1"?>
<!-- Generator: Adobe Illustrator 16.0.0, SVG Export Plug-In . SVG Version: 6.00 Build 0)  -->
<!DOCTYPE svg PUBLIC "-//W3C//DTD SVG 1.1//EN" "http://www.w3.org/Graphics/SVG/1.1/DTD/svg11.dtd">
<svg version="1.1" id="Capa_1" xmlns="http://www.w3.org/2000/svg" xmlns:xlink="http://www.w3.org/1999/xlink" x="0px" y="0px"
	 width="304.587px" height="304.586px" viewBox="0 0 304.587 304.586" style="enable-background:new 0 0 304.587 304.586;"
	 xml:space="preserve">
<g>
	<path d="M214.965,2.843c-55.424-0.54-102.105,35.233-105.39,92.078c-0.769,13.288,0.958,25.34,4.687,36.083
		c-1.177,8.326-3.302,16.897-4.218,25.382c-38.806,27.567-80.849,52.728-107.891,92.888c-4.05,6.023-1.892,13.571,2.405,18.627
		c8.695,10.232,18.188,19.708,27.67,29.208c3.597,3.603,9.962,5.843,14.955,3.957c49.296-18.621,83.845-67.134,114.587-107.636
		c4.6-1.67,9.037-3.951,13.12-6.666c18.477,5.873,39.056,7.302,59.256,3.831c46.771-8.034,71.33-58.024,70.418-101.312
		C303.5,38.47,264.822,2.787,214.965,2.843z M46.758,268.069c-3.924-3.963-7.749-8.016-11.55-12.1
		c22.752-28.828,55.379-48.801,85.539-69.691c0.204,0.198,0.405,0.414,0.609,0.606c1.438,1.357,2.945,2.486,4.483,3.531
		C104.27,219.178,78.485,252.667,46.758,268.069z M242.395,154.879c-42.447,26.492-96.473-6.228-101.817-51.876
		c-5.146-43.961,35.038-69.803,74.388-69.415C280.717,33.513,293.813,122.795,242.395,154.879z"/>
	<path d="M229.178,52.933c-12.045-9.164-29.315-10.295-43.252-5.245c-16.729,6.062-26.139,20.8-26.77,38.256
		c-0.534,14.874,22.53,14.826,23.059,0c0.654-18.2,22.464-22.884,35.326-13.103C229.376,81.849,240.846,61.811,229.178,52.933z"/>
</g>
<g>
</g>
<g>
</g>
<g>
</g>
<g>
</g>
<g>
</g>
<g>
</g>
<g>
</g>
<g>
</g>
<g>
</g>
<g>
</g>
<g>
</g>
<g>
</g>
<g>
</g>
<g>
</g>
<g>
</g>
</svg>
