<?xml version="1.0" encoding="iso-8859-1"?>
<!-- Generator: Adobe Illustrator 16.0.0, SVG Export Plug-In . SVG Version: 6.00 Build 0)  -->
<!DOCTYPE svg PUBLIC "-//W3C//DTD SVG 1.1//EN" "http://www.w3.org/Graphics/SVG/1.1/DTD/svg11.dtd">
<svg version="1.1" id="Capa_1" xmlns="http://www.w3.org/2000/svg" xmlns:xlink="http://www.w3.org/1999/xlink" x="0px" y="0px"
	 width="186.074px" height="186.074px" viewBox="0 0 186.074 186.074" style="enable-background:new 0 0 186.074 186.074;"
	 xml:space="preserve">
<g>
	<path d="M184.868,64.838c-0.971-16.775-1.724-44.215-16.06-55.938c-16.904-13.823-48.424-7.891-67.849-5.21
		C88.147,5.458,75.407,7.667,62.636,9.703c-12.089,1.927-24.496,1.968-36.319,5.298C5.758,20.791-0.475,38.986,0.028,58.47
		c0.59,22.864,2.2,52.683,14.178,72.696c10.543,17.615,31.365,16.811,48.241,10.178c5.565,13.991,11.425,27.907,17.377,41.732
		c1.429,3.32,6.956,3.876,9.198,1.186c6.124-7.351,10.69-15.571,14.786-24.187c2.084-4.383,5.557-10.181,6.967-15.711
		c0.204,0.019,0.391,0.062,0.605,0.063c21.788,0.115,47.844,3.089,63.985-14.757C189.499,114.051,185.972,83.927,184.868,64.838z
		 M168.939,116.63c-8.651,20.118-40.241,15.167-57.56,15.009c-2.04-0.02-3.571,0.755-4.603,1.925
		c-0.8-0.034-1.607,0.132-2.333,0.606c-5.594,3.673-6.944,11.593-9.565,17.467c-2.565,5.749-5.464,11.435-8.846,16.79
		c-5.218-11.724-10.609-23.509-18.078-33.904c-0.31-0.431-0.691-0.769-1.112-1.027c-0.591-0.493-1.344-0.775-2.227-0.686
		c-18.317,1.877-35.816,3.898-43.475-16.242C14.478,99.046,13.41,77.12,12.467,58.47c-1.061-20.997,8.417-31.346,29.311-33.894
		c18.453-2.25,36.737-5.024,55.135-7.795c18.992-2.861,40.728-6.369,59.461-0.489c15.274,4.794,15.07,36.128,15.939,48.547
		C173.431,80.796,175.437,101.524,168.939,116.63z"/>
	<path d="M148.792,23.66c-6.697,0.787-12.998,4.653-19.581,6.394c-11.859,3.137-24.209,4.636-36.356,6.131
		c-20.403,2.511-44.262,2.006-63.708,9.274c-4.979,1.861-4.702,10.323,1.338,9.886c23.062-1.671,46.33-4.415,69.277-7.285
		c12.625-1.579,47.327-2.271,53.57-16.489C154.723,28.401,153.21,23.14,148.792,23.66z"/>
	<path d="M150.351,55.063c-7.231-0.148-14.75,4.424-21.777,6.297c-10.622,2.832-21.614,4.183-32.5,5.517
		c-21.318,2.612-42.913,2.43-64.19,5.063c-4.803,0.594-4.817,6.9,0,7.482c22.352,2.698,45.891,1.238,68.238-0.765
		c14.762-1.324,45.501-2.3,54.573-16.025C156.865,59.346,153.976,55.137,150.351,55.063z"/>
	<path d="M155.026,87.672c-7.152-0.154-14.634,4.044-21.646,5.705c-11.658,2.761-23.702,3.837-35.616,4.795
		c-19.894,1.601-40.25,1.148-59.955,4.514c-4.958,0.847-3.297,7.888,1.115,8.242c22.07,1.77,44.662,0.845,66.695-0.934
		c15.014-1.212,44.035-1.28,53.86-14.562C161.918,92.133,158.584,87.748,155.026,87.672z"/>
</g>
<g>
</g>
<g>
</g>
<g>
</g>
<g>
</g>
<g>
</g>
<g>
</g>
<g>
</g>
<g>
</g>
<g>
</g>
<g>
</g>
<g>
</g>
<g>
</g>
<g>
</g>
<g>
</g>
<g>
</g>
</svg>
