<?xml version="1.0" encoding="iso-8859-1"?>
<!-- Generator: Adobe Illustrator 19.0.0, SVG Export Plug-In . SVG Version: 6.00 Build 0)  -->
<svg version="1.1" id="Layer_1" xmlns="http://www.w3.org/2000/svg" xmlns:xlink="http://www.w3.org/1999/xlink" x="0px" y="0px"
	 viewBox="0 0 512 512" style="enable-background:new 0 0 512 512;" xml:space="preserve">
<g>
	<g>
		<path d="M441.736,0.064c-0.826-0.042-1.657-0.064-2.493-0.064c-0.836,0-1.668,0.022-2.493,0.064
			c-38.967,1.32-70.265,33.411-70.265,72.694c0,1.432,0.053,2.852,0.136,4.264l-41.885,9.308c-3.698,0.822-6.33,4.102-6.33,7.891
			c0,5.172,4.789,9.013,9.838,7.891l41.115-9.136c1.935,6.66,4.794,12.932,8.433,18.662c0.058,0.1,0.097,0.206,0.16,0.304
			c10.767,16.81,27.578,28.196,46.62,32.086c0.016,0.003,0.033,0.006,0.05,0.011c0.885,0.18,1.779,0.33,2.672,0.479L317.032,395.112
			c-8.587-4.506-18.344-7.069-28.695-7.069c-10.958,0-21.253,2.87-30.194,7.88L135.571,222.28
			c15.356-7.463,28.621-19.102,38.198-34.055c0.029-0.045,0.045-0.094,0.072-0.139c9.359-14.641,14.79-32.024,14.79-50.654
			c0-1.431-0.038-2.855-0.101-4.272l100.334-22.296c3.698-0.822,6.33-4.102,6.33-7.891c0-5.172-4.789-9.013-9.838-7.891
			l-98.945,21.988c-9.563-43.283-48.942-75.496-95.409-73.895C41.505,44.879,1.41,85.258,0.037,134.767
			c-0.544,19.635,4.949,37.983,14.752,53.32c0.028,0.045,0.044,0.094,0.072,0.139c13.951,21.781,35.729,36.536,60.398,41.587
			c0.042,0.009,0.083,0.017,0.125,0.026c0.683,0.139,1.369,0.272,2.057,0.396c0.203,0.037,0.406,0.071,0.609,0.107
			c0.613,0.107,1.227,0.212,1.843,0.306c0.309,0.047,0.621,0.088,0.931,0.133c0.826,0.119,1.654,0.226,2.485,0.323
			c0.545,0.064,1.091,0.127,1.638,0.181c0.373,0.037,0.746,0.068,1.12,0.1c0.557,0.048,1.115,0.093,1.675,0.131
			c0.355,0.025,0.71,0.047,1.066,0.068c0.614,0.036,1.231,0.064,1.848,0.087c0.3,0.011,0.599,0.026,0.9,0.034
			c0.917,0.027,1.837,0.043,2.759,0.043s1.843-0.017,2.759-0.043c0.301-0.009,0.6-0.023,0.9-0.034
			c0.618-0.024,1.233-0.052,1.847-0.087c0.356-0.021,0.711-0.043,1.066-0.068c0.559-0.039,1.118-0.084,1.675-0.131
			c0.373-0.032,0.747-0.064,1.12-0.1c0.548-0.054,1.093-0.117,1.638-0.181c0.831-0.096,1.659-0.205,2.484-0.323
			c0.31-0.045,0.622-0.085,0.931-0.133c0.617-0.095,1.23-0.199,1.843-0.306c0.203-0.036,0.406-0.07,0.609-0.107
			c0.688-0.124,1.373-0.257,2.057-0.396c0.042-0.009,0.083-0.017,0.125-0.026c2.224-0.455,4.414-1.016,6.587-1.628
			c0.031,0.046,0.057,0.095,0.089,0.141L245.18,405.598c-11.597,11.268-18.822,27.014-18.822,44.423
			c0,12.177,3.544,23.535,9.634,33.124c0.05,0.084,0.081,0.174,0.134,0.255c9.173,14.322,23.496,24.021,39.719,27.333
			c0.01,0.002,0.021,0.004,0.03,0.006c0.995,0.203,1.996,0.384,3.004,0.538c0.036,0.005,0.071,0.01,0.107,0.015
			c0.93,0.14,1.867,0.259,2.807,0.358c0.108,0.011,0.215,0.025,0.322,0.036c0.927,0.093,1.858,0.162,2.793,0.213
			c0.189,0.011,0.378,0.018,0.568,0.027c0.95,0.043,1.902,0.072,2.861,0.072c0.958,0,1.91-0.029,2.861-0.072
			c0.19-0.009,0.379-0.016,0.568-0.027c0.936-0.051,1.867-0.121,2.793-0.213c0.108-0.011,0.214-0.025,0.322-0.036
			c0.941-0.098,1.877-0.217,2.807-0.358c0.036-0.005,0.071-0.01,0.107-0.015c1.008-0.154,2.009-0.335,3.004-0.538
			c0.01-0.002,0.021-0.004,0.03-0.006c16.224-3.312,30.546-13.011,39.719-27.333c0.053-0.082,0.084-0.172,0.134-0.255
			c6.09-9.589,9.634-20.948,9.634-33.124c0-17.903-7.639-34.047-19.817-45.372l114.115-259.352c0.643-0.046,1.29-0.083,1.929-0.147
			c0.341-0.034,0.675-0.092,1.036-0.061c0.853,0.07,1.671-0.112,2.488-0.368c0.091-0.028,0.185-0.037,0.279-0.051
			c1.18-0.18,2.353-0.392,3.518-0.629c0.016-0.003,0.033-0.008,0.05-0.011c19.042-3.89,35.853-15.276,46.62-32.086
			c0.063-0.098,0.101-0.205,0.16-0.304C507.841,100.383,512,87.051,512,72.759C512,33.476,480.703,1.385,441.736,0.064z
			 M172.464,137.432c0,12.168-2.798,23.694-7.781,33.973c-9.523-6.977-21.301-12.383-34.396-15.885
			c15.729-11.252,26.008-29.655,26.008-50.425c0-6.526-1.021-12.816-2.898-18.728C165.261,100.075,172.464,117.922,172.464,137.432z
			 M91.962,59.344c0.784-0.023,1.565-0.059,2.354-0.059s1.57,0.037,2.354,0.059c24.171,1.23,43.456,21.281,43.456,45.751
			c0,25.261-20.55,45.811-45.811,45.811s-45.811-20.55-45.811-45.811C48.506,80.625,67.791,60.574,91.962,59.344z M23.95,171.405
			c-4.983-10.279-7.781-21.805-7.781-33.973c0-19.51,7.202-37.358,19.067-51.065c-1.878,5.912-2.898,12.203-2.898,18.728
			c0,20.77,10.28,39.173,26.009,50.425C45.251,159.022,33.472,164.428,23.95,171.405z M106.312,214.658
			c-0.06,0.01-0.12,0.019-0.18,0.029c-1.188,0.181-2.385,0.331-3.59,0.457c-0.171,0.018-0.342,0.036-0.513,0.052
			c-1.169,0.115-2.346,0.206-3.529,0.27c-0.161,0.009-0.322,0.013-0.484,0.02c-1.226,0.057-2.459,0.094-3.699,0.094
			s-2.474-0.037-3.7-0.094c-0.161-0.008-0.322-0.012-0.484-0.02c-1.184-0.063-2.359-0.154-3.529-0.27
			c-0.171-0.017-0.343-0.033-0.513-0.052c-1.205-0.126-2.403-0.277-3.59-0.457c-0.06-0.009-0.12-0.019-0.18-0.029
			c-20.186-3.123-37.829-14.009-49.813-29.489c14.875-11.42,37.386-18.095,61.81-18.095s46.935,6.674,61.809,18.094
			C144.142,200.649,126.498,211.534,106.312,214.658z M287.021,404.245c0.439-0.012,0.874-0.033,1.316-0.033
			s0.877,0.022,1.316,0.033c13.507,0.687,24.284,11.892,24.284,25.567c0,14.116-11.484,25.6-25.6,25.6
			c-14.116,0-25.6-11.484-25.6-25.6C262.737,416.137,273.515,404.931,287.021,404.245z M242.527,450.022
			c0-6.72,1.466-13.1,4.077-18.855c0.365,11.363,5.287,21.59,12.999,28.915c-5.069,1.757-9.746,3.991-13.916,6.628
			C243.655,461.535,242.527,455.909,242.527,450.022z M304.098,493.037c-0.025,0.01-0.05,0.018-0.075,0.027
			c-0.655,0.239-1.318,0.464-1.988,0.674c-0.106,0.033-0.211,0.064-0.317,0.095c-0.6,0.184-1.206,0.358-1.816,0.517
			c-0.19,0.05-0.382,0.093-0.571,0.139c-0.54,0.134-1.082,0.263-1.63,0.377c-0.277,0.057-0.557,0.104-0.835,0.157
			c-0.474,0.089-0.949,0.181-1.428,0.255c-0.369,0.057-0.742,0.1-1.113,0.149c-0.402,0.053-0.803,0.112-1.208,0.154
			c-0.483,0.05-0.969,0.081-1.455,0.116c-0.305,0.022-0.608,0.054-0.914,0.07c-0.8,0.041-1.603,0.064-2.41,0.064
			c-0.807,0-1.61-0.023-2.41-0.064c-0.307-0.016-0.609-0.047-0.914-0.07c-0.486-0.034-0.972-0.067-1.455-0.116
			c-0.405-0.042-0.805-0.101-1.208-0.154c-0.372-0.049-0.744-0.092-1.113-0.149c-0.48-0.075-0.954-0.166-1.428-0.255
			c-0.278-0.053-0.558-0.099-0.835-0.157c-0.548-0.114-1.09-0.244-1.63-0.377c-0.191-0.046-0.383-0.089-0.571-0.139
			c-0.611-0.16-1.216-0.333-1.816-0.517c-0.106-0.032-0.212-0.063-0.317-0.095c-0.669-0.21-1.332-0.434-1.988-0.674
			c-0.025-0.009-0.05-0.017-0.076-0.027c-7.148-2.627-13.459-6.992-18.433-12.575c8.717-5.575,21.157-8.883,34.194-8.883
			c13.037,0,25.477,3.308,34.194,8.883C317.557,486.045,311.246,490.41,304.098,493.037z M334.148,450.022
			c0,5.887-1.129,11.513-3.16,16.688c-4.168-2.637-8.846-4.871-13.916-6.628c7.712-7.324,12.634-17.551,12.999-28.915
			C332.682,436.922,334.148,443.302,334.148,450.022z M439.242,16.169c17.831,0,32.337,14.506,32.337,32.337
			c0,17.831-14.506,32.337-32.337,32.337c-17.831,0-32.337-14.506-32.337-32.337C406.906,30.675,421.412,16.169,439.242,16.169z
			 M382.653,72.759c0-10.847,3.073-20.987,8.386-29.605c-0.194,1.759-0.302,3.543-0.302,5.353c0,14.815,6.683,28.091,17.184,36.996
			c-7.653,2.397-14.646,5.66-20.622,9.688C384.316,88.307,382.653,80.725,382.653,72.759z M458.793,125.863
			c-0.061,0.023-0.123,0.046-0.184,0.069c-0.736,0.269-1.483,0.518-2.233,0.758c-0.211,0.067-0.421,0.134-0.634,0.198
			c-0.653,0.199-1.311,0.386-1.974,0.562c-0.326,0.086-0.651,0.167-0.978,0.248c-0.583,0.144-1.168,0.281-1.759,0.407
			c-0.424,0.089-0.85,0.169-1.277,0.249c-0.52,0.098-1.038,0.196-1.562,0.28c-0.518,0.082-1.041,0.149-1.563,0.217
			c-0.453,0.059-0.903,0.125-1.358,0.174c-0.637,0.068-1.279,0.113-1.921,0.159c-0.357,0.026-0.709,0.063-1.068,0.081
			c-1.009,0.054-2.022,0.084-3.041,0.084s-2.032-0.03-3.041-0.084c-0.358-0.019-0.711-0.056-1.068-0.081
			c-0.641-0.046-1.284-0.092-1.921-0.159c-0.456-0.049-0.907-0.114-1.358-0.174c-0.522-0.068-1.044-0.135-1.563-0.217
			c-0.524-0.084-1.043-0.182-1.562-0.28c-0.427-0.08-0.854-0.16-1.277-0.249c-0.59-0.126-1.176-0.263-1.759-0.407
			c-0.327-0.08-0.653-0.162-0.978-0.248c-0.663-0.176-1.32-0.362-1.974-0.562c-0.212-0.065-0.423-0.132-0.634-0.198
			c-0.75-0.239-1.497-0.488-2.233-0.758c-0.061-0.023-0.123-0.046-0.184-0.069c-9.385-3.466-17.604-9.355-23.902-16.901
			c10.784-7.475,26.737-11.951,43.455-11.951c16.718,0,32.671,4.475,43.453,11.951C476.398,116.508,468.178,122.398,458.793,125.863
			z M491.185,95.19c-5.976-4.029-12.969-7.292-20.622-9.688c10.502-8.904,17.185-22.181,17.185-36.996
			c0-1.81-0.108-3.594-0.302-5.353c5.313,8.619,8.386,18.759,8.386,29.605C495.832,80.725,494.169,88.307,491.185,95.19z"/>
	</g>
</g>
<g>
</g>
<g>
</g>
<g>
</g>
<g>
</g>
<g>
</g>
<g>
</g>
<g>
</g>
<g>
</g>
<g>
</g>
<g>
</g>
<g>
</g>
<g>
</g>
<g>
</g>
<g>
</g>
<g>
</g>
</svg>
